# Blender 4.1.1
# www.blender.org
mtllib eye_long_NEWwwwwwwwwww.mtl
o Cube.003
v -71.466019 415.815216 24.302105
v -71.466019 464.419464 24.302101
v -71.466019 415.815216 -24.302166
v -71.466019 464.419464 -24.302170
v 87.545113 415.815216 24.302105
v 87.545113 464.419464 24.302101
v 87.545113 415.815216 -24.302164
v 87.545113 464.419464 -24.302168
vn -1.0000 -0.0000 -0.0000
vn -0.0000 -0.0000 -1.0000
vn 1.0000 -0.0000 -0.0000
vn -0.0000 -0.0000 1.0000
vn -0.0000 -1.0000 -0.0000
vn -0.0000 1.0000 -0.0000
vt 0.133509 0.133509
vt 0.133509 0.866491
vt 0.866491 0.866491
vt 0.866491 0.133509
vt 0.142189 -0.674292
vt 0.856810 -0.674292
vt 0.856811 1.663626
vt 0.142189 1.663626
vt 0.854098 0.145902
vt 0.854098 0.854098
vt 0.145902 0.854098
vt 0.145902 0.145902
vt 0.859056 -0.670042
vt 0.145066 -0.670042
vt 0.145066 1.665809
vt 0.859056 1.665809
vt 0.138142 1.753211
vt 0.138141 -0.715878
vt 0.892858 -0.715878
vt 0.892858 1.753211
vt 0.147924 1.666919
vt 0.147924 -0.650919
vt 0.856408 -0.650919
vt 0.856408 1.666919
s 0
usemtl Material.040
f 1/1/1 2/2/1 4/3/1 3/4/1
f 3/5/2 4/6/2 8/7/2 7/8/2
f 7/9/3 8/10/3 6/11/3 5/12/3
f 5/13/4 6/14/4 2/15/4 1/16/4
f 3/17/5 7/18/5 5/19/5 1/20/5
f 8/21/6 4/22/6 2/23/6 6/24/6
