# Blender 4.1.1
# www.blender.org
mtllib eye_fix.mtl
g Cube.001_Cube.001
v -162.794281 111.646957 -116.526848
v -162.794281 143.574219 -116.526855
v -162.794281 111.646942 -148.454102
v -162.794281 143.574203 -148.454102
v -130.867035 111.646957 -116.526848
v -130.867035 143.574219 -116.526855
v -130.867035 111.646942 -148.454102
v -130.867035 143.574203 -148.454102
vn -1.0000 -0.0000 -0.0000
vn -0.0000 -0.0000 -1.0000
vn 1.0000 -0.0000 -0.0000
vn -0.0000 -0.0000 1.0000
vn -0.0000 -1.0000 -0.0000
vn -0.0000 1.0000 -0.0000
vt 0.146176 0.147229
vt 0.146176 0.544525
vt 0.852715 0.544525
vt 0.852715 0.147229
vt 0.151675 0.341702
vt 0.151675 0.740311
vt 0.860550 0.740311
vt 0.860550 0.341702
vt 0.853578 0.387496
vt 0.853578 0.782374
vt 0.151340 0.782374
vt 0.151340 0.387496
vt 0.853351 0.560371
vt 0.853351 0.955383
vt 0.150874 0.955383
vt 0.150874 0.560371
vt 0.151758 0.995053
vt 0.857800 0.995053
vt 0.857800 0.598035
vt 0.151758 0.598035
vt 0.145989 0.756343
vt 0.850236 0.756343
vt 0.850236 0.360337
vt 0.145989 0.360337
s 1
g Cube.001_Material.022
usemtl Material.022
f 1/1/1 2/2/1 4/3/1 3/4/1
f 3/5/2 4/6/2 8/7/2 7/8/2
f 7/9/3 8/10/3 6/11/3 5/12/3
f 5/13/4 6/14/4 2/15/4 1/16/4
f 3/17/5 7/18/5 5/19/5 1/20/5
f 8/21/6 4/22/6 2/23/6 6/24/6
